<svg xmlns="http://www.w3.org/2000/svg" width="32" height="32" viewBox="0 0 32 32">
  <g fill="none" fill-rule="evenodd">
    <rect width="32" height="32"/>
    <g fill="#00427B" fill-rule="nonzero" transform="translate(1)">
      <path d="M20.5278919 9.54090746C15.3316945 9.54090746 11.0548103 11.1637736 11.0548103 13.56266 11.0548103 15.2271934 13.1139849 16.5180994 16.1106417 17.152465L16.6489669 17.257539C17.8354339 17.4701833 19.1493089 17.5844126 20.5278919 17.5844126 25.7232562 17.5844126 30 15.9614744 30 13.56266 30 11.1638457 25.7232562 9.54090746 20.5278919 9.54090746zM20.5278919 10.9737433C21.4330007 10.9737433 22.3003177 11.0296574 23.1074347 11.1293306L23.6363482 11.2021288C26.4936154 11.6367071 28.4745763 12.6232855 28.4745763 13.56266 28.4745763 14.8151594 24.9528681 16.1515767 20.5278919 16.1515767 16.1021028 16.1515767 12.580234 14.8152016 12.580234 13.56266 12.580234 12.6232538 14.5612852 11.6366913 17.4189406 11.2021229L17.947928 11.1293264C18.7551608 11.0296557 19.6226168 10.9737433 20.5278919 10.9737433zM12.580234 18.4366514C12.580234 19.1198559 13.6280628 19.8280026 15.2988691 20.3306144L15.7293035 20.451852C16.3198653 20.6074371 16.9757131 20.738051 17.6811116 20.8351574L18.2192053 20.9015712C18.9483957 20.9813904 19.723203 21.0255681 20.5278919 21.0255681 21.332433 21.0255681 22.107114 20.981389 22.8361968 20.9015678L23.3742133 20.8351524C26.2835757 20.4345789 28.350106 19.4638476 28.4691498 18.5221624L28.4745763 18.4366514 30 18.4366514C30 20.248001 27.5614901 21.6169622 24.1302881 22.1788382L23.5654038 22.2628211C22.6101888 22.3908097 21.5881703 22.4584039 20.5278919 22.4584039 19.4674434 22.4584039 18.4452837 22.3908127 17.4899517 22.2628282L16.9250001 22.178848C13.5861462 21.6321743 11.1873513 20.3214622 11.0601256 18.5825452L11.0548103 18.4366514 12.580234 18.4366514zM12.580234 23.3111346C12.580234 23.9943391 13.6280628 24.7024858 15.2988691 25.2050976L15.7293035 25.3263352C17.0580676 25.6764018 18.7173418 25.9000513 20.5278919 25.9000513 24.8523005 25.9000513 28.3140321 24.6236899 28.4691498 23.3966457L28.4745763 23.3111346 30 23.3111346C30 25.1224842 27.5614901 26.4914455 24.1302881 27.0533214L23.5654038 27.1373043C22.6101888 27.2652929 21.5881703 27.3328872 20.5278919 27.3328872 19.4674434 27.3328872 18.4452837 27.2652959 17.4899517 27.1373115L16.9250001 27.0533312C13.5861462 26.5066575 11.1873513 25.1959455 11.0601256 23.4570284L11.0548103 23.3111346 12.580234 23.3111346z"/>
      <path d="M12.580234 13.56266L12.580234 27.9782475C12.580234 28.6326692 13.5428001 29.3103282 15.0936334 29.8081143L15.5112969 29.9337577C16.8745968 30.3178617 18.6171306 30.5671642 20.5278919 30.5671642 24.851452 30.5671642 28.3139935 29.2902256 28.4691485 28.0637191L28.4745763 27.9782475 28.4745763 13.56266 30 13.56266 30 27.9782475C30 30.3763781 25.722334 32 20.5278919 32 15.4386428 32 11.2297968 30.4420413 11.0601268 28.1241011L11.0548103 27.9782475 11.0548103 13.56266 12.580234 13.56266zM9.47308157 0C4.27688418 0 0 1.62286617 0 4.02175255 0 6.42063893 4.27688418 8.0435051 9.47308157 8.0435051 10.8514435 8.0435051 12.1651462 7.9292708 13.3514795 7.7166204L13.8897455 7.61154353C16.8860827 6.97716137 18.9451897 5.68623598 18.9451897 4.02175255 18.9451897 2.35726912 16.8860827 1.06634373 13.8897455.431961568L13.3514795.326884702C12.1651462.1142343 10.8514435 0 9.47308157 0zM9.47308157 1.43283582C10.3781904 1.43283582 11.2455074 1.48874998 12.0526244 1.58842314L12.5815379 1.66122133C15.4388051 2.09579962 17.419766 3.08237802 17.419766 4.02175255 17.419766 4.96112708 15.4388051 5.94770548 12.5815379 6.38228376L12.0526244 6.45508196C11.2455074 6.55475512 10.3781904 6.61066928 9.47308157 6.61066928 8.56780654 6.61066928 7.70035048 6.55475689 6.89311766 6.45508618L6.36413027 6.3822897C3.50647492 5.9477213 1.52542373 4.96115874 1.52542373 4.02175255 1.52542373 3.08234636 3.50647492 2.09578379 6.36413027 1.6612154L6.89311766 1.58841892C7.70035048 1.48874821 8.56780654 1.43283582 9.47308157 1.43283582zM1.52610514 8.89613741C1.52610514 9.37835584 2.15449515 9.8890262 3.19700744 10.328232L3.55955548 10.47185C4.2512686 10.7297947 5.08874741 10.9569044 6.02309096 11.1303758L6.5420454 11.21954C6.80603191 11.2613252 7.07656192 11.2988125 7.35264344 11.3315392L7.91191458 11.3905081C8.47799991 11.4428554 9.06364601 11.4749269 9.66091705 11.4830218L9.96048458 11.4850541 9.96048458 12.91789C8.40181021 12.91789 6.89842845 12.7758906 5.55264765 12.5148613L5.02298323 12.4041557C2.15872611 11.7609584.123280664 10.5564785.00602631039 9.0352927L.000681410237 8.89613741 1.52610514 8.89613741zM1.52610514 13.7705223C1.52610514 14.3866903 2.5520876 15.0493122 4.15703683 15.5499374L4.58855878 15.6767235C5.03262635 15.7995606 5.51344902 15.9101399 6.02309096 16.0047606L6.5420454 16.0939248C7.50999594 16.2471375 8.56592014 16.3425659 9.66091705 16.3574067L9.96048458 16.359439 9.96048458 17.7922748C8.40181021 17.7922748 6.89842845 17.6502755 5.55264765 17.3892461L5.02298323 17.2785405C2.15872611 16.6353433.123280664 15.4308634.00602631039 13.9096776L.000681410237 13.7705223 1.52610514 13.7705223z"/>
      <path d="M1.52610514,4.02145743 L1.52610514,18.4370449 C1.52610514,19.2407423 3.27163295,20.1234728 5.77070834,20.6226601 L6.2802768,20.7172466 C7.31833264,20.8956435 8.46637497,21.0077394 9.66091705,21.0239293 L9.96048458,21.0259616 L9.96048458,22.4587974 C9.12919158,22.4587974 8.31362626,22.4184065 7.52930917,22.3411092 L6.94717291,22.2762707 L6.37820978,22.197919 L5.82387485,22.1063807 C2.54465992,21.5182448 0.133940151,20.2356756 0.00602631039,18.5762002 L0.000681410237,18.4370449 L0.000681410237,4.02145743 L1.52610514,4.02145743 Z"/>
      <polygon points="18.945 4.022 18.945 8.521 17.42 8.521 17.42 4.022"/>
    </g>
  </g>
</svg>
