<?xml version="1.0" encoding="UTF-8"?>
<svg width="32px" height="34px" viewBox="0 0 32 34" version="1.1" xmlns="http://www.w3.org/2000/svg" xmlns:xlink="http://www.w3.org/1999/xlink">
    <title>100-percent-data-protection-32px</title>
    <g id="icons" stroke="none" stroke-width="1" fill="none" fill-rule="evenodd">
        <g id="100-percent-data-protection-32px" transform="translate(0.000000, 1.159298)">
            <path d="M18.4029503,1.99313337 C18.0646404,1.53667421 17.2770501,1.53667421 16.9387402,1.99313337 C16.1697449,3.0311725 9.59729477,6.33181252 6.79064203,6.33181252 C6.29337442,6.33181252 5.89028174,6.72107719 5.89028174,7.20128613 L5.89028174,19.1352605 C5.89028174,21.4210319 7.76358299,23.9755813 11.4585992,26.7282386 C14.0427112,28.6537085 16.9195453,30.1887552 17.4420062,30.3208271 C17.5169862,30.3399428 17.5937658,30.349211 17.6705453,30.349211 C17.7473249,30.349211 17.8241044,30.3399428 17.8990845,30.3208271 C18.4215454,30.1887552 21.2983794,28.6537085 23.8830913,26.7282386 C27.5781075,23.9755813 29.4514087,21.4210319 29.4514087,19.1352605 L29.4514087,7.20128613 C29.4514087,6.72107719 29.048316,6.33181252 28.5510484,6.33181252 C25.7437959,6.33181252 19.1713457,3.0311725 18.4029503,1.99313337 Z" id="Combined-Shape-Copy-27" fill="#00427B" transform="translate(17.670845, 16.000000) rotate(10.000000) translate(-17.670845, -16.000000) "></path>
            <path d="M13.555391,1.11770421 C13.1888885,0.632716344 12.3356657,0.632716344 11.9691633,1.11770421 C11.1360851,2.22062078 4.01593078,5.7275508 0.975390308,5.7275508 C0.436683735,5.7275508 0,6.14114451 0,6.65136652 L0,19.3312142 C0,21.7598464 2.02940968,24.4740551 6.03234392,27.3987535 C8.83179858,29.4445653 11.9483688,31.0755524 12.5143681,31.2158788 C12.5955965,31.2361892 12.6787743,31.2460367 12.7619522,31.2460367 C12.8451301,31.2460367 12.9283079,31.2361892 13.0095363,31.2158788 C13.5755356,31.0755524 16.6921058,29.4445653 19.4922103,27.3987535 C23.4951445,24.4740551 25.5245542,21.7598464 25.5245542,19.3312142 L25.5245542,6.65136652 C25.5245542,6.14114451 25.0878705,5.7275508 24.5491639,5.7275508 C21.5079736,5.7275508 14.3878193,2.22062078 13.555391,1.11770421 Z" id="Combined-Shape-Copy-28" fill="#FFFFFF"></path>
            <g id="Group-35-Copy" transform="translate(0.981714, 1.650789)" fill="#00427B">
                <g id="Group-31-Copy-4" transform="translate(1.963427, 10.761908)">
                    <path d="M1.74627218,7.90150632 L1.74437158,2.28097256 L0.953341453,3.26516476 L0,2.75253873 L1.83750103,0.465629425 C1.97586478,0.292991413 2.2377676,0.215226543 2.47762344,0.274638904 C2.71937989,0.333740205 2.88435205,0.515398942 2.88473217,0.721631378 L2.88739301,7.90119526 L1.74627218,7.90150632 Z M18.4311921,5.38095413 C19.095635,5.38095413 19.6342725,5.88814049 19.6342725,6.51378657 C19.6342725,7.13943266 19.095635,7.64661902 18.4311921,7.64661902 C17.7667491,7.64661902 17.2281116,7.13943266 17.2281116,6.51378657 C17.2281116,5.88814049 17.7667491,5.38095413 18.4311921,5.38095413 Z M18.650519,1.33285178 L19.2430769,1.66106255 L15.8057042,7.16339158 L15.2131464,6.83518081 L18.650519,1.33285178 Z M18.4311921,6.02828695 C18.1464308,6.02828695 17.9155862,6.24565254 17.9155862,6.51378657 C17.9155862,6.78192061 18.1464308,6.99928619 18.4311921,6.99928619 C18.7159533,6.99928619 18.946798,6.78192061 18.946798,6.51378657 C18.946798,6.24565254 18.7159533,6.02828695 18.4311921,6.02828695 Z M16.0250312,0.849624336 C16.6894742,0.849624336 17.2281116,1.3568107 17.2281116,1.98245678 C17.2281116,2.60810287 16.6894742,3.11528923 16.0250312,3.11528923 C15.3605882,3.11528923 14.8219508,2.60810287 14.8219508,1.98245678 C14.8219508,1.3568107 15.3605882,0.849624336 16.0250312,0.849624336 Z M16.0250312,1.49695716 C15.7402699,1.49695716 15.5094253,1.71432275 15.5094253,1.98245678 C15.5094253,2.25059082 15.7402699,2.4679564 16.0250312,2.4679564 C16.3097925,2.4679564 16.5406371,2.25059082 16.5406371,1.98245678 C16.5406371,1.71432275 16.3097925,1.49695716 16.0250312,1.49695716 Z M6.29925084,0 C7.07522141,0 7.66861067,0.281456992 8.07941862,0.844370977 C8.49022657,1.40728496 8.70052111,2.21568699 8.71030225,3.26957707 L8.71030225,4.71552865 C8.71030225,5.80179078 8.50652847,6.6326734 8.0989809,7.20817652 C7.69143333,7.78367963 7.09478369,8.07143119 6.30903198,8.07143119 C5.53306141,8.07143119 4.93967215,7.78907497 4.5288642,7.22436254 C4.11805625,6.65965011 3.90776171,5.85034885 3.89798057,4.79645877 L3.89798057,3.3505072 C3.89798057,2.25345438 4.10419964,1.42077332 4.51663777,0.852463989 C4.92907591,0.284154663 5.52328027,0 6.29925084,0 Z M6.29925084,1.0195492 C5.91516477,1.0195492 5.68828096,1.12804739 5.48914102,1.40244753 C5.23001618,1.75950245 5.07226117,2.35594882 5.05459838,3.19111601 L5.05293777,3.3505072 L5.05289901,4.78810601 C5.06104411,5.6657168 5.2241046,6.2932417 5.50069052,6.67344736 C5.69771155,6.94428006 5.92384374,7.05188199 6.30903198,7.05188199 C6.6992072,7.05188199 6.92456695,6.94319572 7.11963801,6.66773339 C7.37949612,6.30078445 7.53616457,5.70271476 7.553697,4.87367938 L7.55534505,4.71552865 L7.55538381,3.27792983 C7.54724259,2.40073664 7.3843354,1.77449834 7.10849904,1.39653061 C6.91178394,1.12697965 6.68529083,1.0195492 6.29925084,1.0195492 Z M11.9296672,0 C12.7056378,0 13.299027,0.281456992 13.709835,0.844370977 C14.1206429,1.40728496 14.3309375,2.21568699 14.3407186,3.26957707 L14.3407186,4.71552865 C14.3407186,5.80179078 14.1369448,6.6326734 13.7293973,7.20817652 C13.3218497,7.78367963 12.7252001,8.07143119 11.9394484,8.07143119 C11.1634778,8.07143119 10.5700885,7.78907497 10.1592806,7.22436254 C9.74847263,6.65965011 9.53817808,5.85034885 9.52839694,4.79645877 L9.52839694,3.3505072 C9.52839694,2.25345438 9.73461601,1.42077332 10.1470541,0.852463989 C10.5594923,0.284154663 11.1536966,0 11.9296672,0 Z M11.9296672,1.0195492 C11.5455811,1.0195492 11.3186973,1.12804739 11.1195574,1.40244753 C10.8604325,1.75950245 10.7026775,2.35594882 10.6850148,3.19111601 L10.6833541,3.3505072 L10.6833154,4.78810601 C10.6914605,5.6657168 10.854521,6.2932417 11.1311069,6.67344736 C11.3281279,6.94428006 11.5542601,7.05188199 11.9394484,7.05188199 C12.3296236,7.05188199 12.5549833,6.94319572 12.7500544,6.66773339 C13.0099125,6.30078445 13.1665809,5.70271476 13.1841134,4.87367938 L13.1857614,4.71552865 L13.1858002,3.27792983 C13.177659,2.40073664 13.0147518,1.77449834 12.7389154,1.39653061 C12.5422003,1.12697965 12.3157072,1.0195492 11.9296672,1.0195492 Z" id="Combined-Shape"></path>
                </g>
                <path d="M11.0484584,0.342344376 C11.3867683,-0.114114792 12.1743586,-0.114114792 12.5126686,0.342344376 C13.281064,1.3803835 19.8535141,4.68102352 22.6607667,4.68102352 C23.1580343,4.68102352 23.561127,5.07028819 23.561127,5.55049714 L23.561127,5.55049714 L23.561127,17.4844715 C23.561127,19.7702429 21.6878257,22.3247923 17.9928095,25.0774496 C15.4080977,27.0029195 12.5312636,28.5379662 12.0088027,28.6700381 C11.9338227,28.6891538 11.8570431,28.698422 11.7802636,28.698422 C11.703484,28.698422 11.6267045,28.6891538 11.5517244,28.6700381 C11.0292635,28.5379662 8.15242946,27.0029195 5.56831747,25.0774496 C1.87330124,22.3247923 0,19.7702429 0,17.4844715 L0,17.4844715 L0,5.55049714 C0,5.07028819 0.403092679,4.68102352 0.900360284,4.68102352 C3.70701303,4.68102352 10.2794631,1.3803835 11.0484584,0.342344376 Z M11.7582721,1.61570941 C9.61728859,3.31536204 4.44998062,5.64671183 1.33405695,6.08902086 L1.33405695,6.08902086 L1.33405695,17.7209618 C1.33405695,21.5976704 9.78332916,26.6173636 11.765791,27.5431266 C13.6586535,26.662139 22.1831139,21.6146124 22.1831139,17.7209618 L22.1831139,17.7209618 L22.1831139,6.08902086 C19.0665636,5.64671183 13.8992557,3.31536204 11.7582721,1.61570941 Z" id="Combined-Shape-Copy-24"></path>
            </g>
        </g>
    </g>
</svg>