<svg xmlns="http://www.w3.org/2000/svg" width="32" height="32" viewBox="0 0 32 32">
  <g fill="none" fill-rule="evenodd">
    <rect width="32" height="32"/>
    <path fill="#00427B" fill-rule="nonzero" d="M12.6429703,0 C19.6258154,0 25.2859405,5.6601251 25.2859405,12.6429703 C25.2859405,15.0295441 24.6247738,17.2616093 23.4756044,19.1660019 L32,27.6905311 L27.6905311,32 L19.1670052,23.4749989 C17.2623933,24.6245416 15.0299632,25.2859405 12.6429703,25.2859405 C5.6601251,25.2859405 0,19.6258154 0,12.6429703 C0,5.6601251 5.6601251,0 12.6429703,0 Z M12.6429703,1.82708402 C6.66919574,1.82708402 1.82708402,6.66919574 1.82708402,12.6429703 C1.82708402,18.6167448 6.66919574,23.4588565 12.6429703,23.4588565 C18.6167448,23.4588565 23.4588565,18.6167448 23.4588565,12.6429703 C23.4588565,6.66919574 18.6167448,1.82708402 12.6429703,1.82708402 Z M19.138606,8.16752103 L20.4305495,9.45946453 L10.9368582,18.9531558 C10.6055807,19.2844333 10.0831759,19.308096 9.72459457,19.0241438 L9.6449147,18.9531558 L5.17893717,14.4871783 L6.47088067,13.1952348 L10.2909621,17.0151434 L19.138606,8.16752103 Z"/>
  </g>
</svg>
