<svg xmlns="http://www.w3.org/2000/svg" width="35" height="34" viewBox="0 0 34 34" fill="none"><path stroke="#0084FF" stroke-width="1.724" d="M17.715 20.005h4.572c1.244 0 2.412.601 3.111 1.62l-7.683-1.62Zm0 0v4.524h7.801l.02.003.006.001.116.018 1.939.272-1.11-1.614-1.088-1.583-7.684-1.621Zm-7.804-.143h12.377c1.33 0 2.564.646 3.29 1.704l2.092 3.046.203.296.353.064c1.17.212 2.268.43 3.088.604.497.106.824.525.824.98v3.099l-.626.297-.345.163-.11.364c-.104.34-.265.643-.497.896-.403.44-1.07.763-1.887.763-.816 0-1.484-.323-1.886-.763a2.268 2.268 0 0 1-.382-.6l-.23-.504H15.787l-.23.504a2.27 2.27 0 0 1-.382.6l.59.54-.59-.54c-.403.44-1.07.763-1.886.763-.817 0-1.484-.323-1.887-.763a2.3 2.3 0 0 1-.47-.79l-.143-.402-.407-.13-.797-.253a1.01 1.01 0 0 1-.723-.953v-3.314c0-.405.26-.773.665-.928l.347-.133.142-.344 1.207-2.933.49-1.19H9.911a.125.125 0 0 1-.047-.008.102.102 0 0 1-.034-.022.071.071 0 0 1-.016-.023.048.048 0 0 1-.004-.019c0-.005 0-.012.004-.019a.07.07 0 0 1 .016-.023.104.104 0 0 1 .034-.02.125.125 0 0 1 .047-.009Zm2.587.143h-.577l-.22.533-1.155 2.8-.491 1.19h7.461v-4.523H12.498Zm-.929 8.162.636.582-.636-.582c-.386.422-.585 1-.585 1.566 0 .566.199 1.145.585 1.567.178.194.407.38.715.51.302.13.637.185 1.005.185.367 0 .702-.056 1.004-.184.308-.13.537-.317.715-.511l-.563-.515.563.515c.386-.422.585-1 .585-1.567 0-.566-.199-1.144-.585-1.566l-.636.582.636-.582a2.034 2.034 0 0 0-.715-.511 2.542 2.542 0 0 0-1.004-.185c-.368 0-.703.056-1.005.185-.308.13-.537.316-.715.51ZM26.954 31.3l.636-.582-.636.582c.178.194.406.38.715.51.302.13.636.185 1.004.185s.702-.056 1.005-.184c.308-.13.536-.317.714-.511l-.635-.582.635.582c.387-.422.585-1 .585-1.567 0-.566-.198-1.144-.585-1.566a2.035 2.035 0 0 0-.714-.511 2.543 2.543 0 0 0-1.005-.185c-.368 0-.702.056-1.004.185-.309.13-.537.316-.715.51-.386.423-.585 1.001-.585 1.567 0 .566.199 1.145.585 1.567Z"/><mask id="a" fill="#fff"><path d="M12.36 1.463a.837.837 0 0 0-.575.253l-5.02 5.02a.837.837 0 1 0 1.183 1.183l5.02-5.02a.837.837 0 0 0-.608-1.436Zm1.69 2.518a.836.836 0 0 0-.596.25l-4.15 4.152a.837.837 0 0 0 .023 1.258l4.962 4.965a.837.837 0 0 0 1.191.005l4.174-4.174a.838.838 0 0 0 .003-1.196L14.65 4.234a.837.837 0 0 0-.6-.253Zm7.514 6.685a.837.837 0 0 0-.575.253l-5.02 5.02a.837.837 0 1 0 1.183 1.183l5.02-5.02a.837.837 0 0 0-.608-1.436Zm-11.452 1.927-7.967 6.802a1.674 1.674 0 1 0 2.337 2.361l.002-.001 6.811-7.98-1.183-1.182Z"/></mask><path fill="#0084FF" d="m11.785 1.716 1.22 1.219.008-.009.009-.009-1.237-1.2Zm-5.02 5.02L7.96 7.98l.013-.013.012-.012-1.219-1.219Zm1.183 1.183L6.73 6.7l-.012.012-.012.013L7.948 7.92Zm5.02-5.02-1.201-1.236-.009.009-.009.008 1.22 1.22Zm1.082 1.082V2.257v1.724Zm-.596.25 1.22 1.218.009-.01-1.23-1.208Zm-4.15 4.152 1.159 1.277.031-.028.03-.03-1.22-1.219Zm-.274.618-1.724-.004v.002l1.724.002Zm.297.64 1.22-1.218-.052-.052-.056-.048-1.112 1.318Zm4.962 4.965L15.52 13.4l-.006-.006-.007-.007-1.22 1.219Zm.598.251v1.724-1.724Zm.593-.246-1.219-1.22-.003.004 1.222 1.216Zm4.174-4.174-1.202-1.236-.009.009-.008.008 1.219 1.22Zm.253-.6h1.724-1.724Zm-.25-.596-1.22 1.219.006.005.005.005 1.209-1.229ZM14.65 4.234l-1.23 1.209.006.005.005.005 1.219-1.219Zm-.01-.01-1.216 1.223.007.006 1.209-1.229Zm6.349 6.695 1.219 1.22.008-.01.009-.008-1.236-1.202Zm-5.02 5.02 1.194 1.244.012-.012.013-.013-1.22-1.219Zm1.183 1.183-1.22-1.219-.012.013-.012.012 1.244 1.194Zm5.02-5.02-1.202-1.236-.009.009-.008.008 1.219 1.22Zm-12.06.49 1.219-1.218-1.127-1.127-1.212 1.035 1.12 1.31Zm-7.967 6.803 1.06 1.36.03-.023.03-.026-1.12-1.31ZM1.5 20.714l-1.724-.002v.002H1.5Zm1.673 1.673v1.724-1.724Zm1.301-.62-1.32-1.11-.01.013-.01.012 1.34 1.084Zm.008-.01-1.218-1.22-.058.058-.052.063 1.328 1.098Zm.002-.002 1.218 1.22.049-.049.044-.052-1.311-1.12Zm6.811-7.98 1.311 1.12 1.034-1.212-1.126-1.126-1.219 1.219ZM12.309-.26a2.56 2.56 0 0 0-1.76.775l2.473 2.402a.887.887 0 0 1-.61.269L12.309-.26Zm-1.743.757-5.02 5.02 2.438 2.438 5.02-5.02L10.566.497ZM5.571 5.492a2.56 2.56 0 0 0-.577.832L8.16 7.692a.887.887 0 0 1-.2.288L5.571 5.492Zm-.577.832a2.56 2.56 0 0 0-.21.99l3.448.035a.887.887 0 0 1-.073.343L4.994 6.324Zm-.21.99c-.003.34.061.678.19.993l3.192-1.303c.045.11.067.227.066.345l-3.448-.035Zm.19.993c.129.316.32.602.56.843l2.438-2.438c.083.084.15.183.194.292L4.974 8.307Zm.56.843c.24.241.527.431.843.56L7.68 6.518c.11.045.209.11.292.194L5.534 9.15Zm.843.56c.315.129.653.194.994.19l-.035-3.448a.887.887 0 0 1 .344.066L6.377 9.71Zm.994.19a2.56 2.56 0 0 0 .99-.21L6.993 6.525a.887.887 0 0 1 .343-.073L7.37 9.9Zm.99-.21a2.56 2.56 0 0 0 .83-.577L6.706 6.725a.887.887 0 0 1 .288-.2L8.36 9.69Zm.806-.552 5.02-5.02L11.75 1.68 6.73 6.7l2.438 2.438Zm5.003-5.003c.37-.36.623-.822.725-1.328l-3.38-.684a.887.887 0 0 1 .252-.46l2.403 2.472Zm.725-1.328a2.56 2.56 0 0 0-.152-1.506l-3.175 1.344a.887.887 0 0 1-.052-.522l3.379.684ZM14.743 1.3a2.56 2.56 0 0 0-.975-1.157l-1.862 2.902a.888.888 0 0 1-.338-.401L14.743 1.3ZM13.768.144A2.56 2.56 0 0 0 12.31-.26l.101 3.446a.887.887 0 0 1-.505-.14L13.768.144Zm.282 2.113c-.34 0-.676.068-.99.2l1.333 3.179a.887.887 0 0 1-.343.069V2.257Zm-.99.2a2.56 2.56 0 0 0-.835.565l2.458 2.418a.887.887 0 0 1-.29.196l-1.333-3.18Zm-.826.555L8.085 7.165l2.439 2.437 4.15-4.153-2.44-2.437ZM8.146 7.106a2.56 2.56 0 0 0-.62.857l3.152 1.4a.887.887 0 0 1-.215.297L8.146 7.106Zm-.62.857a2.56 2.56 0 0 0-.22 1.034l3.448.008a.888.888 0 0 1-.076.358l-3.151-1.4Zm-.22 1.036c0 .373.081.742.238 1.081l3.128-1.452a.889.889 0 0 1 .082.375l-3.448-.004Zm.238 1.081c.158.339.387.639.672.88l2.223-2.637a.888.888 0 0 1 .232.305L7.545 10.08Zm.564.78 4.961 4.964 2.44-2.437-4.962-4.964-2.439 2.437Zm4.948 4.951c.239.244.524.438.838.57l1.337-3.178a.886.886 0 0 1 .29.197l-2.465 2.411Zm.838.57c.314.132.652.2.993.2v-3.447c.118 0 .235.023.344.069l-1.337 3.178Zm.993.2c.338 0 .672-.066.983-.196l-1.324-3.183a.887.887 0 0 1 .34-.069l.001 3.448Zm.983-.196c.312-.13.595-.32.832-.559l-2.445-2.43a.888.888 0 0 1 .289-.194l1.324 3.183Zm.829-.555 4.173-4.174-2.437-2.438-4.174 4.174 2.438 2.438Zm4.157-4.157a2.56 2.56 0 0 0 .573-.84l-3.176-1.34a.887.887 0 0 1 .199-.292l2.404 2.472Zm.573-.84c.133-.315.202-.653.202-.995h-3.448c0-.12.024-.236.07-.346l3.176 1.342Zm.202-.996c0-.34-.068-.676-.2-.99l-3.179 1.334a.886.886 0 0 1-.069-.343h3.448Zm-.2-.99a2.562 2.562 0 0 0-.565-.835l-2.418 2.458a.888.888 0 0 1-.196-.29l3.18-1.332Zm-.555-.825-5.007-5.007-2.438 2.438 5.007 5.007 2.438-2.438Zm-4.997-4.997-.03-.03-2.418 2.458-.01-.01 2.458-2.418Zm-.023-.023a2.56 2.56 0 0 0-1.806-.745v3.448a.887.887 0 0 1-.626-.258l2.432-2.445Zm5.656 5.94a2.56 2.56 0 0 0-1.76.776l2.473 2.403a.887.887 0 0 1-.61.268l-.102-3.446ZM19.77 9.7l-5.02 5.02 2.438 2.438 5.02-5.02L19.77 9.7Zm-4.995 4.996a2.563 2.563 0 0 0-.577.83l3.164 1.369a.886.886 0 0 1-.2.288l-2.387-2.487Zm-.577.83c-.136.313-.207.65-.21.99l3.447.036a.887.887 0 0 1-.073.343l-3.164-1.368Zm-.21.99c-.004.341.06.68.19.995l3.191-1.304c.045.11.067.227.066.345l-3.447-.035Zm.19.995c.128.315.319.602.56.842l2.437-2.438c.084.084.15.183.194.292l-3.192 1.304Zm.56.842c.24.241.527.432.842.56l1.303-3.192c.11.045.209.111.292.194l-2.438 2.438Zm.842.56c.316.13.653.194.994.19l-.035-3.447a.887.887 0 0 1 .344.065l-1.303 3.192Zm.994.19a2.56 2.56 0 0 0 .99-.21l-1.368-3.165a.887.887 0 0 1 .343-.072l.035 3.447Zm.99-.21a2.56 2.56 0 0 0 .831-.577l-2.487-2.388a.886.886 0 0 1 .288-.2l1.368 3.165Zm.807-.552 5.02-5.02-2.438-2.438-5.02 5.02 2.438 2.438Zm5.002-5.003c.37-.36.623-.822.725-1.328l-3.379-.684a.887.887 0 0 1 .251-.46l2.403 2.473Zm.725-1.328a2.56 2.56 0 0 0-.151-1.506l-3.175 1.344a.887.887 0 0 1-.053-.522l3.38.684Zm-.151-1.506a2.561 2.561 0 0 0-.976-1.157L21.11 12.25a.886.886 0 0 1-.338-.4l3.175-1.345Zm-.976-1.157a2.56 2.56 0 0 0-1.458-.404l.102 3.446a.887.887 0 0 1-.505-.14l1.861-2.902ZM8.992 11.282l-7.966 6.802 2.239 2.622 7.966-6.803-2.239-2.621Zm-7.905 6.753a3.398 3.398 0 0 0-.965 1.187l3.097 1.516a.05.05 0 0 1-.015.018l-2.117-2.721Zm-.965 1.187a3.397 3.397 0 0 0-.346 1.49l3.448.004a.051.051 0 0 1-.005.022L.122 19.222Zm-.346 1.492c0 .901.358 1.765.995 2.402l2.438-2.438a.05.05 0 0 1 .015.036H-.224Zm.995 2.402a3.397 3.397 0 0 0 2.402.995v-3.448a.05.05 0 0 1 .036.015L.771 23.116Zm2.403.995c.506 0 1.006-.113 1.463-.331L3.15 20.668a.051.051 0 0 1 .022-.005v3.448Zm1.463-.331c.457-.218.859-.536 1.177-.93l-2.68-2.168a.051.051 0 0 1 .017-.014l1.486 3.112Zm1.157-.905.017-.02-2.657-2.197 2.64 2.217Zm-.093.101.001-.002-2.436-2.439-.002.002 2.437 2.44Zm.094-.102 6.811-7.98-2.622-2.238-6.811 7.98 2.622 2.238Zm6.719-10.317-1.183-1.183-2.438 2.438 1.183 1.183 2.438-2.438Z" mask="url(#a)"/></svg>
