<svg xmlns="http://www.w3.org/2000/svg" width="35" height="34" fill="none"><path fill="#0084FF" stroke="#fff" stroke-width=".2" d="M6.054 9.816h.001-.241c-1.046 0-1.871.824-1.871 1.87v10.627a1.855 1.855 0 0 0 1.871 1.872h18.952l.027-.057 2.516-5.314.067-.143h-3.362a.786.786 0 0 1 0-1.57h4.603a.788.788 0 0 1 .711 1.122l-2.756 5.819-.067.143h2.682c1.046 0 1.871-.825 1.871-1.871V11.687c0-1.045-.825-1.87-1.87-1.87h-.361l.104.155c.322.48.51 1.055.51 1.673 0 1.695-1.415 3.13-3.086 3.13-1.652 0-3.053-1.4-3.088-3.067v-.091a6.916 6.916 0 0 1 .214-1.676l.032-.125H6.054Zm18.783 1.871v.003c.023.817.717 1.515 1.517 1.515.817 0 1.517-.729 1.517-1.56 0-.816-.685-1.474-1.517-1.474-.778 0-1.432.574-1.51 1.321-.007.064-.007.132-.007.192v.003Zm-9.518 2.069a3.091 3.091 0 0 1 2.182-.906 3.091 3.091 0 0 1 3.087 3.088v2.125A3.09 3.09 0 0 1 17.5 21.15a3.092 3.092 0 0 1-3.086-3.087v-2.125a3.091 3.091 0 0 1 .905-2.183Zm-5.155 2.181a1.518 1.518 0 0 0-1.517-1.516v.1-.1a1.518 1.518 0 0 0-1.517 1.516v2.126a1.519 1.519 0 0 0 1.516 1.516 1.518 1.518 0 0 0 1.518-1.516v-2.126Zm8.853 0a1.518 1.518 0 0 0-1.516-1.516v.1-.1a1.518 1.518 0 0 0-1.516 1.516v2.126a1.518 1.518 0 0 0 1.516 1.516 1.518 1.518 0 0 0 1.516-1.516v-2.126ZM3.134 9.007a3.812 3.812 0 0 1 2.68-1.116h23.372a3.812 3.812 0 0 1 3.796 3.796v10.627a3.812 3.812 0 0 1-3.796 3.795H5.813a3.812 3.812 0 0 1-3.796-3.795V11.688a3.812 3.812 0 0 1 1.117-2.68Zm3.331 4.749a3.091 3.091 0 0 1 2.181-.906 3.091 3.091 0 0 1 3.089 3.088v2.125a3.09 3.09 0 0 1-3.088 3.087 3.091 3.091 0 0 1-3.087-3.087v-2.125a3.091 3.091 0 0 1 .905-2.182Z"/></svg>