<svg xmlns="http://www.w3.org/2000/svg" width="24" height="24" fill="none"><path fill="#0084FF" stroke="#0084FF" stroke-width=".2" d="M4.353 13.404h-.004l-.114.004H4.23a1.633 1.633 0 0 0-1.508 1.63v1.921l.004.19v.002c.065 1.578.922 2.613 2.062 3.25 1.135.634 2.555.876 3.77.876 1.239 0 2.692-.252 3.838-.915 1.152-.667 1.996-1.752 1.997-3.405V15.036l-.004-.115v-.004a1.632 1.632 0 0 0-1.626-1.512l-8.411-.001Zm15.298 0h-5.403l.138.165.101.121c.22.281.373.615.434.982l.014.084h.085l4.622-.001.06.005c.129.026.227.14.227.279v1.533l-.005.175c-.058 1.06-.651 1.65-1.332 1.985-.687.337-1.459.41-1.85.424l-.218.002c-.33-.005-1.104-.056-1.817-.37l-.09-.04-.041.091a4.01 4.01 0 0 1-.595.95l-.082.098.115.056c.819.4 1.753.566 2.574.566.996 0 2.164-.24 3.086-.853.927-.616 1.602-1.605 1.602-3.083v-1.538l-.005-.12v-.004a1.633 1.633 0 0 0-1.503-1.502h-.003l-.114-.005ZM5.393 19.191c-.45-.26-.78-.572-.997-.94-.217-.367-.326-.796-.326-1.294v-1.914l.007-.067a.29.29 0 0 1 .076-.139.29.29 0 0 1 .138-.075l.067-.007h8.402l.059.006c.13.026.228.141.228.278v1.915l-.005.177c-.066 1.177-.803 1.858-1.682 2.256-.883.399-1.895.505-2.472.53l-.001.001-.329.008-.257-.004H8.3c-1.115-.036-2.163-.3-2.907-.73ZM12.864 7.75A4.313 4.313 0 0 0 8.56 3.43a4.313 4.313 0 0 0-4.306 4.32 4.313 4.313 0 0 0 4.306 4.32 4.313 4.313 0 0 0 4.305-4.32Zm7.648.768a3.547 3.547 0 0 0-3.542-3.553 3.547 3.547 0 0 0-3.54 3.553 3.547 3.547 0 0 0 3.54 3.552 3.547 3.547 0 0 0 3.542-3.552ZM5.6 7.749A2.967 2.967 0 0 1 8.559 4.78a2.967 2.967 0 0 1 2.958 2.97 2.967 2.967 0 0 1-2.958 2.969 2.967 2.967 0 0 1-2.96-2.97Zm9.176.768a2.2 2.2 0 0 1 2.194-2.202 2.2 2.2 0 0 1 2.194 2.202 2.2 2.2 0 0 1-2.194 2.202 2.2 2.2 0 0 1-2.194-2.202Z"/></svg>