<svg xmlns="http://www.w3.org/2000/svg" width="28" height="28" fill="none"><path stroke="#0084FF" stroke-linecap="round" stroke-linejoin="round" stroke-width="1.647" d="M16.798 21.508h-5.97m11.94 0h3.583V17.76a1.187 1.187 0 0 0-1.003-1.178l-6.162-1.023-3.224-4.282a1.194 1.194 0 0 0-.955-.476h-8.67a2.395 2.395 0 0 0-2.149 1.309l-.955 1.938a7.115 7.115 0 0 0-.764 3.2v4.259h2.388"/><path stroke="#0084FF" stroke-linecap="round" stroke-linejoin="round" stroke-width="1.647" d="M7.583 24.733a2.917 2.917 0 1 0 0-5.833 2.917 2.917 0 0 0 0 5.834ZM19.249 24.733a2.917 2.917 0 1 0 0-5.833 2.917 2.917 0 0 0 0 5.834Z"/><path fill="#0084FF" fill-rule="evenodd" d="m19.474 5.305-.3 1.418a.774.774 0 0 1-.776.613L16.91 7.3l.522.612a.667.667 0 0 1-1.014.866L15.08 7.21a.774.774 0 0 1 .607-1.276l2.278.056.462-2.18a.774.774 0 0 1 1.378-.3l1.277 1.724 2.435-1.351c.623-.346 1.342.262 1.105.934L23.7 7.427l1.724.897a.774.774 0 0 1-.003 1.374l-1.738.893.506 2.529a.774.774 0 0 1-1.138.825l-1.317-.743a.667.667 0 0 1 .655-1.162l.253.143-.35-1.745a.773.773 0 0 1 .405-.84l1.15-.591-1.194-.622a.773.773 0 0 1-.373-.944l.591-1.674-1.573.873a.773.773 0 0 1-.997-.216l-.828-1.12Z" clip-rule="evenodd"/></svg>