<svg xmlns="http://www.w3.org/2000/svg" width="28" height="28" fill="none"><path fill="#0084FF" d="M7.294 3.5H20.71a3.792 3.792 0 0 1 3.786 3.577l.006.215v13.417a3.792 3.792 0 0 1-3.577 3.785l-.215.006H7.294a3.792 3.792 0 0 1-3.786-3.576l-.006-.215V7.292a3.792 3.792 0 0 1 3.576-3.786l.216-.006Zm2.42 13.417H5.252v3.792c0 1.07.825 1.95 1.874 2.035l.168.006H20.71c1.072 0 1.95-.825 2.035-1.874l.007-.167v-3.792h-4.463a4.377 4.377 0 0 1-4.053 3.494l-.234.006a4.377 4.377 0 0 1-4.237-3.28l-.05-.22ZM20.71 5.25H7.294c-1.072 0-1.95.825-2.035 1.874l-.007.168v7.875h5.25c.443 0 .809.33.867.756l.008.119a2.625 2.625 0 0 0 5.244.18l.006-.18c0-.443.33-.81.756-.867l.119-.008h5.25V7.292c0-1.071-.825-1.95-1.874-2.035l-.168-.007Z"/><path fill="#0084FF" stroke="#0084FF" stroke-width=".175" d="M14.526 6.897a.36.36 0 0 0-.164-.29.624.624 0 0 0-.36-.106.624.624 0 0 0-.358.106.36.36 0 0 0-.165.29v.053c-.56.083-1.057.299-1.42.602-.38.318-.615.735-.615 1.197v.223c0 .8.64 1.507 1.61 1.842l.425.147v2.673c-.594-.152-.988-.548-.988-.98v-.405a.36.36 0 0 0-.165-.29.625.625 0 0 0-.359-.106.625.625 0 0 0-.359.107.36.36 0 0 0-.164.29v.403c0 .463.236.88.615 1.198.363.303.86.519 1.42.602v.062c0 .12.07.222.165.29a.624.624 0 0 0 .359.106.624.624 0 0 0 .359-.107.36.36 0 0 0 .164-.29v-.061c.562-.084 1.058-.3 1.42-.603.378-.318.614-.735.614-1.197v-.216c0-.799-.64-1.506-1.61-1.84l-.424-.147V7.77c.594.152.987.547.987.98v.412c0 .121.07.222.165.29a.624.624 0 0 0 .358.106.624.624 0 0 0 .36-.106.36.36 0 0 0 .164-.29v-.413c0-.462-.236-.879-.615-1.196-.362-.304-.858-.52-1.419-.603v-.053Zm0 6.736v-2.31l.088.032c.567.23.899.647.899 1.082v.214l-.004.073c-.039.404-.422.765-.983.91Zm-2.035-4.882.003-.072c.04-.405.424-.767.986-.91v2.319l-.09-.034c-.567-.228-.9-.646-.9-1.082v-.22Z"/></svg>