<svg xmlns="http://www.w3.org/2000/svg" width="28" height="28" fill="none"><path fill="#0084FF" stroke="#fff" stroke-width=".124" d="M25.131 6.534a3.671 3.671 0 1 1-7.342 0 3.671 3.671 0 0 1 7.342 0Zm-1.743 0a1.928 1.928 0 1 0-3.856 0 1.928 1.928 0 0 0 3.856 0ZM8.393 2.862a5.539 5.539 0 1 1-.001 11.077 5.539 5.539 0 0 1 0-11.077Zm0 1.743a3.796 3.796 0 1 0 0 7.591 3.796 3.796 0 0 0 0-7.59Z"/><path fill="#0084FF" stroke="#fff" stroke-width=".124" d="m20.374 20.123-.015.043.036.027 4.399 3.384a.872.872 0 1 1-1.063 1.382l-3.933-3.025-.067-.052-.029.08-.192.524a.872.872 0 0 1-.987.556l-6.359-1.258-.048-.009-.02.045-.683 1.534a3.008 3.008 0 0 1-5.57-2.264h.001l1.82-5.055a.871.871 0 0 1 .965-.564l3.302.558.048-.11-.381-.293a.872.872 0 1 1 1.062-1.382l1.256.966.063.048.031-.073 1.081-2.555a3.77 3.77 0 0 1 6.505-.77l.035.048.049-.032 2.099-1.4a.872.872 0 0 1 .966 1.45l-2.417 1.612-.032.021.006.039c.08.592.02 1.214-.207 1.819l-1.72 4.706Zm-3.678-6.813-1.27 3.003-.02.044.039.029L18.843 19l.067.052.03-.08 1.52-4.16a2.028 2.028 0 0 0-3.764-1.502Zm1.381 7.867.052.01.018-.05.12-.326.016-.043-.036-.028-3.589-2.76-.036-.028-.038.027a.87.87 0 0 1-.657.155l-4.82-.814-.05-.009-.018.049-1.558 4.329a1.265 1.265 0 0 0 2.34.956l.985-2.214a.871.871 0 0 1 .965-.5l6.306 1.246Z"/></svg>